<svg width="129" height="154" viewBox="0 0 129 154" fill="none" xmlns="http://www.w3.org/2000/svg">
<path d="M115.599 0.200195C120.255 0.200223 124.81 1.16845 128.999 2.99023V13.8896C125.067 11.2433 120.407 9.79984 115.599 9.7998H48.3984C42.0332 9.7998 35.9286 12.3292 31.4277 16.8301C26.9271 21.3308 24.3985 27.4349 24.3984 33.7998V77H128.999V86.6006H24.3984V125H128.999V134.601H120.398V139.4C120.398 140.673 120.905 141.894 121.805 142.794C122.705 143.694 123.925 144.2 125.198 144.2H128.999V153.8H125.198C121.379 153.8 117.716 152.283 115.016 149.583C112.315 146.883 110.799 143.219 110.799 139.4V134.601H53.1982V139.4C53.1982 143.219 51.6809 146.883 48.9805 149.583C46.2801 152.283 42.6176 153.8 38.7988 153.8H29.1982C25.3792 153.8 21.7161 152.283 19.0156 149.583C16.3151 146.883 14.7989 143.219 14.7988 139.4V67.4004H5.19824C3.92532 67.4003 2.70481 66.8942 1.80469 65.9941C0.904604 65.0941 0.39854 63.8735 0.398438 62.6006C0.398438 61.3275 0.904513 60.1062 1.80469 59.2061C2.7048 58.306 3.92537 57.7999 5.19824 57.7998H14.7988V33.7998C14.7989 24.8887 18.3385 16.3421 24.6396 10.041C30.9409 3.73992 39.4873 0.200195 48.3984 0.200195H115.599ZM24.3984 139.4C24.3985 140.673 24.9046 141.894 25.8047 142.794C26.7048 143.694 27.9253 144.2 29.1982 144.2H38.7988C40.0717 144.2 41.2923 143.694 42.1924 142.794C43.0924 141.894 43.5986 140.673 43.5986 139.4V134.601H24.3984V139.4ZM53.1982 96.2002C55.7442 96.2002 58.186 97.2116 59.9863 99.0117C61.7866 100.812 62.7987 103.254 62.7988 105.8C62.7988 108.346 61.7867 110.789 59.9863 112.589C58.186 114.389 55.7441 115.4 53.1982 115.4C50.6523 115.4 48.2104 114.389 46.4102 112.589C44.6098 110.789 43.5986 108.346 43.5986 105.8C43.5987 103.254 44.6099 100.812 46.4102 99.0117C48.2104 97.2115 50.6523 96.2002 53.1982 96.2002ZM110.799 96.2002C113.345 96.2003 115.787 97.2115 117.587 99.0117C119.387 100.812 120.398 103.254 120.398 105.8C120.398 108.346 119.387 110.789 117.587 112.589C115.787 114.389 113.345 115.4 110.799 115.4C108.253 115.4 105.81 114.389 104.01 112.589C102.209 110.789 101.198 108.346 101.198 105.8C101.198 103.254 102.21 100.812 104.01 99.0117C105.81 97.2114 108.253 96.2002 110.799 96.2002ZM91.5986 19.4004C92.8714 19.4004 94.0921 19.9058 94.9922 20.8057C95.8924 21.7058 96.3984 22.9272 96.3984 24.2002C96.3984 25.4732 95.8924 26.6946 94.9922 27.5947C94.0921 28.4946 92.8714 28.9999 91.5986 29H72.3984C71.1254 29 69.9041 28.4949 69.0039 27.5947C68.1037 26.6946 67.5986 25.4732 67.5986 24.2002C67.5986 22.9272 68.1037 21.7058 69.0039 20.8057C69.9041 19.9055 71.1254 19.4004 72.3984 19.4004H91.5986Z" fill="#158073" fill-opacity="0.1"/>
</svg>
