<svg width="121" height="156" viewBox="0 0 121 156" fill="none" xmlns="http://www.w3.org/2000/svg">
<g opacity="0.46">
<path d="M67.1253 67.125V37.8125H83.8753V67.125H113.188V83.875H83.8753L83.8711 113.188H67.1211V83.875H37.8086V67.125H67.1253Z" fill="white" fill-opacity="0.64"/>
</g>
<path opacity="0.46" d="M77.7605 0.126953C81.9952 0.126953 86.1493 1.28596 89.7722 3.47852L98.3025 8.69238C105.393 13.0283 113.072 15.3654 121.001 16.8926V25.4092C112.024 23.7981 102.699 21.1945 93.9353 15.8408L85.405 10.623C83.0971 9.23399 80.4541 8.5 77.7605 8.5C75.0669 8.50004 72.4238 9.23403 70.116 10.623L61.947 15.6182C52.2321 21.5518 41.5118 24.3659 31.1814 26.0283C24.7745 27.0584 17.8732 27.7162 11.4119 28.3359L8.5808 28.6035C8.5808 29.9433 8.59348 31.1788 8.62279 32.0791L9.49388 61.9277C10.1764 85.2521 20.5492 107.472 38.4968 123.686C48.1782 132.425 58.7351 139.606 70.6443 145.268C72.7887 146.277 75.1436 146.76 77.5124 146.675C79.8813 146.59 82.1951 145.939 84.2615 144.777C94.5417 138.915 103.604 131.792 112.582 123.686C115.607 120.953 118.416 118.048 121.001 114.997V127.262C120.084 128.156 119.149 129.036 118.193 129.899C108.951 138.245 99.3908 145.787 88.407 152.052C81.8955 155.766 73.8386 156.058 67.0466 152.834C54.3671 146.804 43.1363 139.158 32.8855 129.899C13.2922 112.203 1.87236 87.8528 1.12279 62.1709L0.247789 32.3223C0.147679 28.8016 0.247023 21.1215 0.247789 21.0625C3.80712 20.6438 7.43785 20.2958 11.0935 19.9482C27.2279 18.4156 43.8983 16.8328 57.5788 8.47461L65.7488 3.47852C69.3716 1.28587 73.5258 0.126994 77.7605 0.126953Z" fill="#158073" fill-opacity="0.25"/>
</svg>
