<svg width="125" height="148" viewBox="0 0 125 148" fill="none" xmlns="http://www.w3.org/2000/svg">
<path d="M85.4492 0.31543C86.7218 0.315457 87.9583 0.740019 88.9619 1.52246L125 29.6104V43.9727L85.5 13.1631L28.9375 57.2256V136.062H62.875V90.8125C62.875 87.8122 64.067 84.935 66.1885 82.8135C68.31 80.692 71.1872 79.5 74.1875 79.5H96.8125C99.8128 79.5 102.69 80.692 104.812 82.8135C106.933 84.935 108.125 87.8122 108.125 90.8125V136.062H125V147.375H28.9375C25.9391 147.369 23.0655 146.175 20.9453 144.055C18.8251 141.934 17.631 139.061 17.625 136.062V66.0439L7.68652 73.793L0.65625 64.9014L81.9365 1.52246C82.9402 0.740072 84.1767 0.31543 85.4492 0.31543ZM74.1875 90.8125V136.062H96.8125V90.8125H74.1875Z" fill="#158073" fill-opacity="0.1"/>
</svg>
