<svg width="125" height="163" viewBox="0 0 125 163" fill="none" xmlns="http://www.w3.org/2000/svg">
<path d="M57.1973 0.000173897C66.2386 -0.0208497 75.1555 1.86467 83.208 5.50017C91.2606 9.13578 98.2171 14.4172 103.5 20.9054C109.025 14.1174 116.413 8.61977 125 4.96892V15.9826C118.634 19.5508 113.343 24.4462 109.601 30.2502H97.3994C89.4463 17.9192 74.4109 9.63396 57.1973 9.63396C44.9171 9.63399 33.1395 13.9479 24.4561 21.6262C15.773 29.3043 10.8946 39.7179 10.8945 50.5763C10.8652 55.9452 12.0449 61.2659 14.3643 66.2277C16.6836 71.1894 20.0967 75.693 24.4043 79.4767L103.5 149.32L125 130.335V143.988L103.5 163L16.7783 86.3166C6.42832 77.0684 0 64.545 0 50.5763C5.79947e-05 37.1628 6.02639 24.2985 16.7529 14.8137C27.4795 5.32889 42.0277 0.000198463 57.1973 0.000173897Z" fill="#158073" fill-opacity="0.1"/>
</svg>
